<mxfile host="app.diagrams.net" agent="Mozilla/5.0 (Windows NT 10.0; Win64; x64; rv:130.0) Gecko/20100101 Firefox/130.0" version="24.7.13">
  <diagram name="Page-1" id="JMh27gRzv7teHX5rOXKv">
    <mxGraphModel dx="2464" dy="983" grid="1" gridSize="10" guides="1" tooltips="1" connect="1" arrows="1" fold="1" page="1" pageScale="1" pageWidth="850" pageHeight="1100" math="0" shadow="0">
      <root>
        <mxCell id="0" />
        <mxCell id="1" parent="0" />
        <object label="" type="sw_reg" id="wozFC84I_zfBDippYCLW-1">
          <mxCell style="group" parent="1" vertex="1" connectable="0">
            <mxGeometry x="230" y="80" width="165" height="60" as="geometry" />
          </mxCell>
        </object>
        <object label="" id="wozFC84I_zfBDippYCLW-2">
          <mxCell style="rounded=0;whiteSpace=wrap;html=1;fillColor=#dae8fc;strokeColor=#6c8ebf;container=0;" parent="wozFC84I_zfBDippYCLW-1" vertex="1">
            <mxGeometry width="120" height="60" as="geometry" />
          </mxCell>
        </object>
        <object label="5V" type="vout" id="wozFC84I_zfBDippYCLW-3">
          <mxCell style="text;html=1;strokeColor=none;fillColor=none;align=right;verticalAlign=middle;whiteSpace=wrap;rounded=0;container=0;" parent="wozFC84I_zfBDippYCLW-1" vertex="1">
            <mxGeometry x="80" width="40" height="15" as="geometry" />
          </mxCell>
        </object>
        <object label="MPM3630" type="display_name" id="wozFC84I_zfBDippYCLW-4">
          <mxCell style="text;html=1;strokeColor=none;fillColor=none;align=center;verticalAlign=middle;whiteSpace=wrap;rounded=0;container=0;fontStyle=1" parent="wozFC84I_zfBDippYCLW-1" vertex="1">
            <mxGeometry x="10" y="20.000000000000114" width="100" height="20" as="geometry" />
          </mxCell>
        </object>
        <object label="85%" type="efficiency" id="wozFC84I_zfBDippYCLW-5">
          <mxCell style="text;html=1;strokeColor=none;fillColor=none;align=center;verticalAlign=middle;whiteSpace=wrap;rounded=0;container=0;" parent="wozFC84I_zfBDippYCLW-1" vertex="1">
            <mxGeometry x="5" y="40" width="30" height="20" as="geometry" />
          </mxCell>
        </object>
        <object label="3A" type="current_limit" id="wozFC84I_zfBDippYCLW-6">
          <mxCell style="text;html=1;strokeColor=none;fillColor=none;align=right;verticalAlign=middle;whiteSpace=wrap;rounded=0;container=0;" parent="wozFC84I_zfBDippYCLW-1" vertex="1">
            <mxGeometry x="85" y="40" width="35" height="20" as="geometry" />
          </mxCell>
        </object>
        <object label="?A" type="load_current" id="wozFC84I_zfBDippYCLW-7">
          <mxCell style="text;html=1;strokeColor=none;fillColor=none;align=left;verticalAlign=middle;whiteSpace=wrap;rounded=0;container=0;" parent="wozFC84I_zfBDippYCLW-1" vertex="1">
            <mxGeometry x="125" y="15" width="40" height="15" as="geometry" />
          </mxCell>
        </object>
        <object label="" type="load" id="wozFC84I_zfBDippYCLW-8">
          <mxCell style="group" parent="1" vertex="1" connectable="0">
            <mxGeometry x="750" y="90" width="220" height="30" as="geometry" />
          </mxCell>
        </object>
        <mxCell id="wozFC84I_zfBDippYCLW-9" value="" style="html=1;shadow=0;dashed=0;align=center;verticalAlign=middle;shape=mxgraph.arrows2.arrow;dy=0;dx=10;notch=0;labelBackgroundColor=none;strokeWidth=2;" parent="wozFC84I_zfBDippYCLW-8" vertex="1">
          <mxGeometry x="50" y="10" width="170" height="20" as="geometry" />
        </mxCell>
        <object label="MCU" type="load_name" id="wozFC84I_zfBDippYCLW-10">
          <mxCell style="text;html=1;strokeColor=none;fillColor=none;align=center;verticalAlign=middle;whiteSpace=wrap;overflow=hidden;labelBackgroundColor=none;" parent="wozFC84I_zfBDippYCLW-8" vertex="1">
            <mxGeometry x="50" y="10" width="165" height="20" as="geometry" />
          </mxCell>
        </object>
        <object label="&lt;div&gt;14mA&lt;/div&gt;" type="load_current" id="wozFC84I_zfBDippYCLW-11">
          <mxCell style="text;html=1;strokeColor=none;fillColor=none;align=right;verticalAlign=middle;whiteSpace=wrap;overflow=hidden;labelBackgroundColor=none;" parent="wozFC84I_zfBDippYCLW-8" vertex="1">
            <mxGeometry width="40" height="20" as="geometry" />
          </mxCell>
        </object>
        <object label="" type="load" id="wozFC84I_zfBDippYCLW-12">
          <mxCell style="group" parent="1" vertex="1" connectable="0">
            <mxGeometry x="750" y="110" width="220" height="30" as="geometry" />
          </mxCell>
        </object>
        <mxCell id="wozFC84I_zfBDippYCLW-13" value="" style="html=1;shadow=0;dashed=0;align=center;verticalAlign=middle;shape=mxgraph.arrows2.arrow;dy=0;dx=10;notch=0;labelBackgroundColor=none;strokeWidth=2;" parent="wozFC84I_zfBDippYCLW-12" vertex="1">
          <mxGeometry x="50" y="10" width="170" height="20" as="geometry" />
        </mxCell>
        <object label="IO Expander" type="load_name" id="wozFC84I_zfBDippYCLW-14">
          <mxCell style="text;html=1;strokeColor=none;fillColor=none;align=center;verticalAlign=middle;whiteSpace=wrap;overflow=hidden;labelBackgroundColor=none;" parent="wozFC84I_zfBDippYCLW-12" vertex="1">
            <mxGeometry x="50" y="10" width="165" height="20" as="geometry" />
          </mxCell>
        </object>
        <object label="1mA" type="load_current" id="wozFC84I_zfBDippYCLW-15">
          <mxCell style="text;html=1;strokeColor=none;fillColor=none;align=right;verticalAlign=middle;whiteSpace=wrap;overflow=hidden;labelBackgroundColor=none;" parent="wozFC84I_zfBDippYCLW-12" vertex="1">
            <mxGeometry width="40" height="20" as="geometry" />
          </mxCell>
        </object>
        <object label="" type="load" id="wozFC84I_zfBDippYCLW-16">
          <mxCell style="group" parent="1" vertex="1" connectable="0">
            <mxGeometry x="750" y="130" width="220" height="30" as="geometry" />
          </mxCell>
        </object>
        <mxCell id="wozFC84I_zfBDippYCLW-17" value="" style="html=1;shadow=0;dashed=0;align=center;verticalAlign=middle;shape=mxgraph.arrows2.arrow;dy=0;dx=10;notch=0;labelBackgroundColor=none;strokeWidth=2;" parent="wozFC84I_zfBDippYCLW-16" vertex="1">
          <mxGeometry x="50" y="10" width="170" height="20" as="geometry" />
        </mxCell>
        <object label="ADC" type="load_name" id="wozFC84I_zfBDippYCLW-18">
          <mxCell style="text;html=1;strokeColor=none;fillColor=none;align=center;verticalAlign=middle;whiteSpace=wrap;overflow=hidden;labelBackgroundColor=none;" parent="wozFC84I_zfBDippYCLW-16" vertex="1">
            <mxGeometry x="50" y="10" width="165" height="20" as="geometry" />
          </mxCell>
        </object>
        <object label="0.6mA" type="load_current" id="wozFC84I_zfBDippYCLW-19">
          <mxCell style="text;html=1;strokeColor=none;fillColor=none;align=right;verticalAlign=middle;whiteSpace=wrap;overflow=hidden;labelBackgroundColor=none;" parent="wozFC84I_zfBDippYCLW-16" vertex="1">
            <mxGeometry width="40" height="20" as="geometry" />
          </mxCell>
        </object>
        <object label="" type="load" id="wozFC84I_zfBDippYCLW-20">
          <mxCell style="group" parent="1" vertex="1" connectable="0">
            <mxGeometry x="750" y="150" width="220" height="30" as="geometry" />
          </mxCell>
        </object>
        <mxCell id="wozFC84I_zfBDippYCLW-21" value="" style="html=1;shadow=0;dashed=0;align=center;verticalAlign=middle;shape=mxgraph.arrows2.arrow;dy=0;dx=10;notch=0;labelBackgroundColor=none;strokeWidth=2;" parent="wozFC84I_zfBDippYCLW-20" vertex="1">
          <mxGeometry x="50" y="10" width="170" height="20" as="geometry" />
        </mxCell>
        <object label="7-Segment Display Driver" type="load_name" id="wozFC84I_zfBDippYCLW-22">
          <mxCell style="text;html=1;strokeColor=none;fillColor=none;align=center;verticalAlign=middle;whiteSpace=wrap;overflow=hidden;labelBackgroundColor=none;" parent="wozFC84I_zfBDippYCLW-20" vertex="1">
            <mxGeometry x="50" y="10" width="165" height="20" as="geometry" />
          </mxCell>
        </object>
        <object label="0.2A" type="load_current" id="wozFC84I_zfBDippYCLW-23">
          <mxCell style="text;html=1;strokeColor=none;fillColor=none;align=right;verticalAlign=middle;whiteSpace=wrap;overflow=hidden;labelBackgroundColor=none;" parent="wozFC84I_zfBDippYCLW-20" vertex="1">
            <mxGeometry width="40" height="20" as="geometry" />
          </mxCell>
        </object>
        <object label="" type="load" id="wozFC84I_zfBDippYCLW-24">
          <mxCell style="group" parent="1" vertex="1" connectable="0">
            <mxGeometry x="750" y="170" width="220" height="30" as="geometry" />
          </mxCell>
        </object>
        <mxCell id="wozFC84I_zfBDippYCLW-25" value="" style="html=1;shadow=0;dashed=0;align=center;verticalAlign=middle;shape=mxgraph.arrows2.arrow;dy=0;dx=10;notch=0;labelBackgroundColor=none;strokeWidth=2;" parent="wozFC84I_zfBDippYCLW-24" vertex="1">
          <mxGeometry x="50" y="10" width="170" height="20" as="geometry" />
        </mxCell>
        <object label="Relays x7" type="load_name" id="wozFC84I_zfBDippYCLW-26">
          <mxCell style="text;html=1;strokeColor=none;fillColor=none;align=center;verticalAlign=middle;whiteSpace=wrap;overflow=hidden;labelBackgroundColor=none;" parent="wozFC84I_zfBDippYCLW-24" vertex="1">
            <mxGeometry x="50" y="10" width="165" height="20" as="geometry" />
          </mxCell>
        </object>
        <object label="&lt;div&gt;28.1mA&lt;/div&gt;" type="load_current" id="wozFC84I_zfBDippYCLW-27">
          <mxCell style="text;html=1;strokeColor=none;fillColor=none;align=right;verticalAlign=middle;whiteSpace=wrap;overflow=hidden;labelBackgroundColor=none;" parent="wozFC84I_zfBDippYCLW-24" vertex="1">
            <mxGeometry width="40" height="20" as="geometry" />
          </mxCell>
        </object>
        <object label="" type="load" id="wozFC84I_zfBDippYCLW-28">
          <mxCell style="group" parent="1" vertex="1" connectable="0">
            <mxGeometry x="750" y="190" width="220" height="30" as="geometry" />
          </mxCell>
        </object>
        <mxCell id="wozFC84I_zfBDippYCLW-29" value="" style="html=1;shadow=0;dashed=0;align=center;verticalAlign=middle;shape=mxgraph.arrows2.arrow;dy=0;dx=10;notch=0;labelBackgroundColor=none;strokeWidth=2;" parent="wozFC84I_zfBDippYCLW-28" vertex="1">
          <mxGeometry x="50" y="10" width="170" height="20" as="geometry" />
        </mxCell>
        <object label="LEDs" type="load_name" id="wozFC84I_zfBDippYCLW-30">
          <mxCell style="text;html=1;strokeColor=none;fillColor=none;align=center;verticalAlign=middle;whiteSpace=wrap;overflow=hidden;labelBackgroundColor=none;" parent="wozFC84I_zfBDippYCLW-28" vertex="1">
            <mxGeometry x="50" y="10" width="165" height="20" as="geometry" />
          </mxCell>
        </object>
        <object label="0.267A" type="load_current" id="wozFC84I_zfBDippYCLW-31">
          <mxCell style="text;html=1;strokeColor=none;fillColor=none;align=right;verticalAlign=middle;whiteSpace=wrap;overflow=hidden;labelBackgroundColor=none;" parent="wozFC84I_zfBDippYCLW-28" vertex="1">
            <mxGeometry x="-10" width="50" height="20" as="geometry" />
          </mxCell>
        </object>
        <object label="" type="load" id="wozFC84I_zfBDippYCLW-32">
          <mxCell style="group" parent="1" vertex="1" connectable="0">
            <mxGeometry x="750" y="210" width="220" height="30" as="geometry" />
          </mxCell>
        </object>
        <mxCell id="wozFC84I_zfBDippYCLW-33" value="" style="html=1;shadow=0;dashed=0;align=center;verticalAlign=middle;shape=mxgraph.arrows2.arrow;dy=0;dx=10;notch=0;labelBackgroundColor=none;strokeWidth=2;" parent="wozFC84I_zfBDippYCLW-32" vertex="1">
          <mxGeometry x="50" y="10" width="170" height="20" as="geometry" />
        </mxCell>
        <object label="Water Level Sensors x6" type="load_name" id="wozFC84I_zfBDippYCLW-34">
          <mxCell style="text;html=1;strokeColor=none;fillColor=none;align=center;verticalAlign=middle;whiteSpace=wrap;overflow=hidden;labelBackgroundColor=none;" parent="wozFC84I_zfBDippYCLW-32" vertex="1">
            <mxGeometry x="50" y="10" width="165" height="20" as="geometry" />
          </mxCell>
        </object>
        <object label="60mA" type="load_current" id="wozFC84I_zfBDippYCLW-35">
          <mxCell style="text;html=1;strokeColor=none;fillColor=none;align=right;verticalAlign=middle;whiteSpace=wrap;overflow=hidden;labelBackgroundColor=none;" parent="wozFC84I_zfBDippYCLW-32" vertex="1">
            <mxGeometry width="40" height="20" as="geometry" />
          </mxCell>
        </object>
        <object label="" type="load" id="wozFC84I_zfBDippYCLW-36">
          <mxCell style="group" parent="1" vertex="1" connectable="0">
            <mxGeometry x="750" y="230" width="220" height="30" as="geometry" />
          </mxCell>
        </object>
        <mxCell id="wozFC84I_zfBDippYCLW-37" value="" style="html=1;shadow=0;dashed=0;align=center;verticalAlign=middle;shape=mxgraph.arrows2.arrow;dy=0;dx=10;notch=0;labelBackgroundColor=none;strokeWidth=2;" parent="wozFC84I_zfBDippYCLW-36" vertex="1">
          <mxGeometry x="50" y="10" width="170" height="20" as="geometry" />
        </mxCell>
        <object label="Flow Sensors x6" type="load_name" id="wozFC84I_zfBDippYCLW-38">
          <mxCell style="text;html=1;strokeColor=none;fillColor=none;align=center;verticalAlign=middle;whiteSpace=wrap;overflow=hidden;labelBackgroundColor=none;" parent="wozFC84I_zfBDippYCLW-36" vertex="1">
            <mxGeometry x="50" y="10" width="165" height="20" as="geometry" />
          </mxCell>
        </object>
        <object label="10mA" type="load_current" id="wozFC84I_zfBDippYCLW-39">
          <mxCell style="text;html=1;strokeColor=none;fillColor=none;align=right;verticalAlign=middle;whiteSpace=wrap;overflow=hidden;labelBackgroundColor=none;" parent="wozFC84I_zfBDippYCLW-36" vertex="1">
            <mxGeometry width="40" height="20" as="geometry" />
          </mxCell>
        </object>
        <object label="" type="load" id="wozFC84I_zfBDippYCLW-40">
          <mxCell style="group" parent="1" vertex="1" connectable="0">
            <mxGeometry x="750" y="250" width="220" height="30" as="geometry" />
          </mxCell>
        </object>
        <mxCell id="wozFC84I_zfBDippYCLW-41" value="" style="html=1;shadow=0;dashed=0;align=center;verticalAlign=middle;shape=mxgraph.arrows2.arrow;dy=0;dx=10;notch=0;labelBackgroundColor=none;strokeWidth=2;" parent="wozFC84I_zfBDippYCLW-40" vertex="1">
          <mxGeometry x="50" y="10" width="170" height="20" as="geometry" />
        </mxCell>
        <object label="UID EEPROM" type="load_name" id="wozFC84I_zfBDippYCLW-42">
          <mxCell style="text;html=1;strokeColor=none;fillColor=none;align=center;verticalAlign=middle;whiteSpace=wrap;overflow=hidden;labelBackgroundColor=none;" parent="wozFC84I_zfBDippYCLW-40" vertex="1">
            <mxGeometry x="50" y="10" width="165" height="20" as="geometry" />
          </mxCell>
        </object>
        <object label="3mA" type="load_current" id="wozFC84I_zfBDippYCLW-43">
          <mxCell style="text;html=1;strokeColor=none;fillColor=none;align=right;verticalAlign=middle;whiteSpace=wrap;overflow=hidden;labelBackgroundColor=none;" parent="wozFC84I_zfBDippYCLW-40" vertex="1">
            <mxGeometry width="40" height="20" as="geometry" />
          </mxCell>
        </object>
        <object label="" type="ldo" id="wozFC84I_zfBDippYCLW-53">
          <mxCell style="group" parent="1" vertex="1" connectable="0">
            <mxGeometry x="570" y="320" width="165" height="60" as="geometry" />
          </mxCell>
        </object>
        <object label="" id="wozFC84I_zfBDippYCLW-54">
          <mxCell style="rounded=0;whiteSpace=wrap;html=1;fillColor=#fff2cc;strokeColor=#d6b656;" parent="wozFC84I_zfBDippYCLW-53" vertex="1">
            <mxGeometry width="120" height="60" as="geometry" />
          </mxCell>
        </object>
        <object label="3.3V" type="vout" id="wozFC84I_zfBDippYCLW-55">
          <mxCell style="text;html=1;strokeColor=none;fillColor=none;align=right;verticalAlign=middle;whiteSpace=wrap;rounded=0;" parent="wozFC84I_zfBDippYCLW-53" vertex="1">
            <mxGeometry x="80" width="40" height="15" as="geometry" />
          </mxCell>
        </object>
        <object label="MIC5219-3.3" type="display_name" id="wozFC84I_zfBDippYCLW-56">
          <mxCell style="text;html=1;strokeColor=none;fillColor=none;align=center;verticalAlign=middle;whiteSpace=wrap;rounded=0;fontStyle=1" parent="wozFC84I_zfBDippYCLW-53" vertex="1">
            <mxGeometry x="5" y="20" width="110" height="20" as="geometry" />
          </mxCell>
        </object>
        <object label="0.5A" type="current_limit" id="wozFC84I_zfBDippYCLW-57">
          <mxCell style="text;html=1;strokeColor=none;fillColor=none;align=right;verticalAlign=middle;whiteSpace=wrap;rounded=0;" parent="wozFC84I_zfBDippYCLW-53" vertex="1">
            <mxGeometry x="85" y="40" width="35" height="20" as="geometry" />
          </mxCell>
        </object>
        <object label="?A" type="load_current" id="wozFC84I_zfBDippYCLW-58">
          <mxCell style="text;html=1;strokeColor=none;fillColor=none;align=left;verticalAlign=middle;whiteSpace=wrap;rounded=0;container=0;" parent="wozFC84I_zfBDippYCLW-53" vertex="1">
            <mxGeometry x="125" y="15" width="40" height="15" as="geometry" />
          </mxCell>
        </object>
        <object label="" type="load" id="wozFC84I_zfBDippYCLW-60">
          <mxCell style="group" parent="1" vertex="1" connectable="0">
            <mxGeometry x="750" y="330" width="220" height="30" as="geometry" />
          </mxCell>
        </object>
        <mxCell id="wozFC84I_zfBDippYCLW-61" value="" style="html=1;shadow=0;dashed=0;align=center;verticalAlign=middle;shape=mxgraph.arrows2.arrow;dy=0;dx=10;notch=0;labelBackgroundColor=none;strokeWidth=2;" parent="wozFC84I_zfBDippYCLW-60" vertex="1">
          <mxGeometry x="50" y="10" width="170" height="20" as="geometry" />
        </mxCell>
        <object label="WiFi" type="load_name" id="wozFC84I_zfBDippYCLW-62">
          <mxCell style="text;html=1;strokeColor=none;fillColor=none;align=center;verticalAlign=middle;whiteSpace=wrap;overflow=hidden;labelBackgroundColor=none;" parent="wozFC84I_zfBDippYCLW-60" vertex="1">
            <mxGeometry x="50" y="10" width="165" height="20" as="geometry" />
          </mxCell>
        </object>
        <object label="0.5A" type="load_current" id="wozFC84I_zfBDippYCLW-63">
          <mxCell style="text;html=1;strokeColor=none;fillColor=none;align=right;verticalAlign=middle;whiteSpace=wrap;overflow=hidden;labelBackgroundColor=none;" parent="wozFC84I_zfBDippYCLW-60" vertex="1">
            <mxGeometry width="40" height="20" as="geometry" />
          </mxCell>
        </object>
        <mxCell id="wozFC84I_zfBDippYCLW-64" style="edgeStyle=orthogonalEdgeStyle;rounded=0;orthogonalLoop=1;jettySize=auto;html=1;exitX=1;exitY=0.5;exitDx=0;exitDy=0;entryX=0;entryY=0.5;entryDx=0;entryDy=0;" parent="1" source="wozFC84I_zfBDippYCLW-54" target="wozFC84I_zfBDippYCLW-62" edge="1">
          <mxGeometry relative="1" as="geometry" />
        </mxCell>
        <object label="" type="source" id="wozFC84I_zfBDippYCLW-77">
          <mxCell style="group" parent="1" vertex="1" connectable="0">
            <mxGeometry x="-60" y="70" width="80" height="40" as="geometry" />
          </mxCell>
        </object>
        <mxCell id="wozFC84I_zfBDippYCLW-78" style="edgeStyle=none;rounded=0;html=1;exitX=1;exitY=0.5;entryX=0;entryY=0.493;entryPerimeter=0;startArrow=none;startFill=0;endArrow=none;endFill=0;jettySize=auto;orthogonalLoop=1;" parent="wozFC84I_zfBDippYCLW-77" edge="1">
          <mxGeometry x="-1169" y="443.01" as="geometry">
            <mxPoint x="14" y="20" as="sourcePoint" />
            <mxPoint x="55.200000000000045" y="20" as="targetPoint" />
          </mxGeometry>
        </mxCell>
        <object label="24VAC" type="vout" id="wozFC84I_zfBDippYCLW-79">
          <mxCell style="text;html=1;strokeColor=none;fillColor=none;align=center;verticalAlign=middle;whiteSpace=wrap;overflow=hidden;labelBackgroundColor=none;" parent="wozFC84I_zfBDippYCLW-77" vertex="1">
            <mxGeometry width="69" height="20" as="geometry" />
          </mxCell>
        </object>
        <mxCell id="wozFC84I_zfBDippYCLW-80" value="" style="endArrow=none;html=1;rounded=0;" parent="wozFC84I_zfBDippYCLW-77" edge="1">
          <mxGeometry width="50" height="50" relative="1" as="geometry">
            <mxPoint x="34.360000000000014" y="40" as="sourcePoint" />
            <mxPoint x="34.360000000000014" y="20" as="targetPoint" />
          </mxGeometry>
        </mxCell>
        <object label="?A" type="load_current" id="wozFC84I_zfBDippYCLW-81">
          <mxCell style="text;html=1;strokeColor=none;fillColor=none;align=left;verticalAlign=middle;whiteSpace=wrap;rounded=0;container=0;" parent="wozFC84I_zfBDippYCLW-77" vertex="1">
            <mxGeometry x="40" y="23" width="40" height="15" as="geometry" />
          </mxCell>
        </object>
        <object label="" type="acdc" id="wozFC84I_zfBDippYCLW-87">
          <mxCell style="group" parent="1" vertex="1" connectable="0">
            <mxGeometry x="70" y="60" width="142" height="100" as="geometry" />
          </mxCell>
        </object>
        <mxCell id="wozFC84I_zfBDippYCLW-84" value="Full Bridge&lt;br&gt;Rectifier" style="rhombus;whiteSpace=wrap;html=1;fillColor=#e1d5e7;strokeColor=#9673a6;" parent="wozFC84I_zfBDippYCLW-87" vertex="1">
          <mxGeometry width="100" height="100" as="geometry" />
        </mxCell>
        <object label="?A" type="load_current" id="wozFC84I_zfBDippYCLW-85">
          <mxCell style="text;html=1;strokeColor=none;fillColor=none;align=left;verticalAlign=middle;whiteSpace=wrap;rounded=0;container=0;" parent="wozFC84I_zfBDippYCLW-87" vertex="1">
            <mxGeometry x="102" y="39" width="40" height="10" as="geometry" />
          </mxCell>
        </object>
        <object label="?V" type="vout" id="wozFC84I_zfBDippYCLW-86">
          <mxCell style="text;html=1;strokeColor=none;fillColor=none;align=left;verticalAlign=middle;whiteSpace=wrap;rounded=0;container=0;" parent="wozFC84I_zfBDippYCLW-87" vertex="1">
            <mxGeometry x="102" y="53" width="40" height="7" as="geometry" />
          </mxCell>
        </object>
        <mxCell id="wozFC84I_zfBDippYCLW-88" style="edgeStyle=orthogonalEdgeStyle;rounded=0;orthogonalLoop=1;jettySize=auto;html=1;exitX=1;exitY=0.5;exitDx=0;exitDy=0;entryX=0;entryY=0.5;entryDx=0;entryDy=0;" parent="1" source="wozFC84I_zfBDippYCLW-84" target="wozFC84I_zfBDippYCLW-2" edge="1">
          <mxGeometry relative="1" as="geometry" />
        </mxCell>
        <mxCell id="wozFC84I_zfBDippYCLW-89" style="edgeStyle=orthogonalEdgeStyle;rounded=0;orthogonalLoop=1;jettySize=auto;html=1;exitX=0.5;exitY=1;exitDx=0;exitDy=0;entryX=0;entryY=0.5;entryDx=0;entryDy=0;" parent="1" source="wozFC84I_zfBDippYCLW-79" target="wozFC84I_zfBDippYCLW-84" edge="1">
          <mxGeometry relative="1" as="geometry" />
        </mxCell>
        <object label="" type="isum" id="xPquUtgmXL64WGJMUfh2-1">
          <mxCell style="group" vertex="1" connectable="0" parent="1">
            <mxGeometry x="440" y="100" width="40" height="20" as="geometry" />
          </mxCell>
        </object>
        <object label="" id="xPquUtgmXL64WGJMUfh2-2">
          <mxCell style="whiteSpace=wrap;html=1;container=0;fillColor=#f5f5f5;fontColor=#333333;strokeColor=#666666;" vertex="1" parent="xPquUtgmXL64WGJMUfh2-1">
            <mxGeometry width="40" height="20" as="geometry" />
          </mxCell>
        </object>
        <object label="?A" type="load_current" id="xPquUtgmXL64WGJMUfh2-3">
          <mxCell style="text;html=1;strokeColor=none;fillColor=none;align=center;verticalAlign=middle;whiteSpace=wrap;overflow=hidden;labelBackgroundColor=none;container=0;points=[];" vertex="1" parent="xPquUtgmXL64WGJMUfh2-1">
            <mxGeometry width="40" height="20" as="geometry" />
          </mxCell>
        </object>
        <mxCell id="xPquUtgmXL64WGJMUfh2-4" style="edgeStyle=orthogonalEdgeStyle;rounded=0;orthogonalLoop=1;jettySize=auto;html=1;exitX=1;exitY=0.5;exitDx=0;exitDy=0;entryX=0;entryY=0.5;entryDx=0;entryDy=0;entryPerimeter=0;" edge="1" parent="1" source="wozFC84I_zfBDippYCLW-2" target="xPquUtgmXL64WGJMUfh2-3">
          <mxGeometry relative="1" as="geometry" />
        </mxCell>
        <mxCell id="xPquUtgmXL64WGJMUfh2-5" style="edgeStyle=orthogonalEdgeStyle;rounded=0;orthogonalLoop=1;jettySize=auto;html=1;entryX=0;entryY=0.5;entryDx=0;entryDy=0;" edge="1" parent="1" source="xPquUtgmXL64WGJMUfh2-3" target="wozFC84I_zfBDippYCLW-10">
          <mxGeometry relative="1" as="geometry" />
        </mxCell>
        <mxCell id="xPquUtgmXL64WGJMUfh2-6" style="edgeStyle=orthogonalEdgeStyle;rounded=0;orthogonalLoop=1;jettySize=auto;html=1;entryX=0;entryY=0.5;entryDx=0;entryDy=0;" edge="1" parent="1" source="xPquUtgmXL64WGJMUfh2-3" target="wozFC84I_zfBDippYCLW-14">
          <mxGeometry relative="1" as="geometry" />
        </mxCell>
        <mxCell id="xPquUtgmXL64WGJMUfh2-7" style="edgeStyle=orthogonalEdgeStyle;rounded=0;orthogonalLoop=1;jettySize=auto;html=1;entryX=0;entryY=0.5;entryDx=0;entryDy=0;" edge="1" parent="1" source="xPquUtgmXL64WGJMUfh2-3" target="wozFC84I_zfBDippYCLW-18">
          <mxGeometry relative="1" as="geometry" />
        </mxCell>
        <mxCell id="xPquUtgmXL64WGJMUfh2-8" style="edgeStyle=orthogonalEdgeStyle;rounded=0;orthogonalLoop=1;jettySize=auto;html=1;entryX=0;entryY=0.5;entryDx=0;entryDy=0;" edge="1" parent="1" source="xPquUtgmXL64WGJMUfh2-3" target="wozFC84I_zfBDippYCLW-22">
          <mxGeometry relative="1" as="geometry" />
        </mxCell>
        <mxCell id="xPquUtgmXL64WGJMUfh2-9" style="edgeStyle=orthogonalEdgeStyle;rounded=0;orthogonalLoop=1;jettySize=auto;html=1;entryX=0;entryY=0.5;entryDx=0;entryDy=0;" edge="1" parent="1" source="xPquUtgmXL64WGJMUfh2-3" target="wozFC84I_zfBDippYCLW-26">
          <mxGeometry relative="1" as="geometry" />
        </mxCell>
        <mxCell id="xPquUtgmXL64WGJMUfh2-10" style="edgeStyle=orthogonalEdgeStyle;rounded=0;orthogonalLoop=1;jettySize=auto;html=1;entryX=0;entryY=0.5;entryDx=0;entryDy=0;" edge="1" parent="1" source="xPquUtgmXL64WGJMUfh2-3" target="wozFC84I_zfBDippYCLW-30">
          <mxGeometry relative="1" as="geometry" />
        </mxCell>
        <mxCell id="xPquUtgmXL64WGJMUfh2-11" style="edgeStyle=orthogonalEdgeStyle;rounded=0;orthogonalLoop=1;jettySize=auto;html=1;entryX=0;entryY=0.5;entryDx=0;entryDy=0;" edge="1" parent="1" source="xPquUtgmXL64WGJMUfh2-3" target="wozFC84I_zfBDippYCLW-34">
          <mxGeometry relative="1" as="geometry" />
        </mxCell>
        <mxCell id="xPquUtgmXL64WGJMUfh2-12" style="edgeStyle=orthogonalEdgeStyle;rounded=0;orthogonalLoop=1;jettySize=auto;html=1;entryX=0;entryY=0.5;entryDx=0;entryDy=0;" edge="1" parent="1" source="xPquUtgmXL64WGJMUfh2-3" target="wozFC84I_zfBDippYCLW-38">
          <mxGeometry relative="1" as="geometry" />
        </mxCell>
        <mxCell id="xPquUtgmXL64WGJMUfh2-13" style="edgeStyle=orthogonalEdgeStyle;rounded=0;orthogonalLoop=1;jettySize=auto;html=1;entryX=0;entryY=0.5;entryDx=0;entryDy=0;" edge="1" parent="1" source="xPquUtgmXL64WGJMUfh2-3" target="wozFC84I_zfBDippYCLW-42">
          <mxGeometry relative="1" as="geometry" />
        </mxCell>
        <mxCell id="xPquUtgmXL64WGJMUfh2-14" style="edgeStyle=orthogonalEdgeStyle;rounded=0;orthogonalLoop=1;jettySize=auto;html=1;exitX=1;exitY=0.5;exitDx=0;exitDy=0;entryX=0;entryY=0.5;entryDx=0;entryDy=0;" edge="1" parent="1" source="wozFC84I_zfBDippYCLW-2" target="wozFC84I_zfBDippYCLW-54">
          <mxGeometry relative="1" as="geometry">
            <Array as="points">
              <mxPoint x="400" y="110" />
              <mxPoint x="400" y="350" />
            </Array>
          </mxGeometry>
        </mxCell>
      </root>
    </mxGraphModel>
  </diagram>
</mxfile>
